<svg xmlns="http://www.w3.org/2000/svg" viewBox="0 0 72 72" id="online-course">
  <path fill="#e8efff" d="M66.438 49.059H5.562c-.863 0-1.562-.7-1.562-1.562V5.727c0-.862.7-1.562 1.562-1.562h60.876c.863 0 1.562.7 1.562 1.563v41.769c0 .862-.7 1.562-1.562 1.562z"></path>
  <path fill="#fff" d="M66 6.165v40.893H5.999V6.165z"></path>
  <circle cx="58.512" cy="8.949" r=".863" fill="#ff7581"></circle>
  <circle cx="60.941" cy="8.949" r=".863" fill="#fddf8c"></circle>
  <circle cx="63.371" cy="8.949" r=".863" fill="#98a2f5"></circle>
  <path fill="#bdc8ff" d="M59.179 13.548v9.16c0 .733-.594 1.327-1.327 1.327H14.148a1.327 1.327 0 0 1-1.327-1.327v-9.16c0-.733.594-1.327 1.327-1.327h43.704c.733 0 1.327.594 1.327 1.327z"></path>
  <path fill="#e8efff" d="M11.185 28.72h49.629v1.217H11.185zM11.185 32.644h49.629v1.217H11.185zM11.185 36.568h49.629v1.217H11.185zM11.185 40.492h49.629v1.217H11.185z"></path>
  <path fill="#fddf8c" d="M32.114 30.856s.544-.058.723-.035c1.652.209 5.018 1.549 6.513 1.39 2.567-.273 7.876-2.877 7.876-2.877l2.24 5.077s-6.27 4.54-9.387 5.186c-2.592.537-10.496-1.395-10.496-1.395l2.53-7.346z"></path>
  <path fill="#f2cf77" d="M29.582 38.205s7.909 1.928 10.498 1.393c3.116-.645 9.39-5.19 9.39-5.19l-.646-1.15c-2.03 1.37-6.147 4.215-8.744 4.75-2.188.457-8.193-.865-9.987-1.282l-.511 1.48z"></path>
  <path fill="#34324c" d="m32.244 61.271-.042-6.32H22.127v6.32z"></path>
  <path fill="#34324c" d="M16.208 54.037h5.929v7.234h-5.929zM13.987 16.34c-.628 1.711.652 5.497 2.353 6.286 1.304.605 2.919-.924 3.402-2.844.485-1.924-.254-3.77-1.647-4.12-1.397-.352-3.424-1.185-4.108.678zm10.587 1.732c-.484 1.92.255 3.766 1.652 4.118 1.393.35 2.918-.925 3.401-2.845.485-1.924-.254-3.77-1.647-4.12-1.396-.352-2.922.923-3.406 2.847z"></path>
  <path fill="#fddf8c" d="M16.208 53.343v.641h16.057l-.151-23.128-19.098-.229-.957 22.716z"></path>
  <path d="M12.029 53.049v.294h4.179v1.59H32.27v-1.884z"></path>
  <path fill="#ff7581" d="m19.41 47.651 2.55 2.467 2.547-2.467-1.906-16.217h-1.285z"></path>
  <path fill="#f26678" d="m21.96 50.118-1.822-2.985 1.822-15.699h-.644L19.41 47.651z"></path>
  <path fill="#ff7581" d="m19.431 30.643 2.495 2.495 2.495-2.495z"></path>
  <path fill="#f2cf77" d="M24.588 30.627h-2.652l2.86 1.584zM19.076 32.211l2.436-1.349.424-.235h-2.65z"></path>
  <path fill="#fdc7b4" d="M19.305 26.809h5.264v3.819h-5.264z"></path>
  <path fill="#efb5a3" d="M19.305 26.81v2.736c1.864.088 3.61-.358 5.264-1.25v-1.487h-5.264z"></path>
  <ellipse cx="16.801" cy="22.209" fill="#fdc7b4" rx="1.285" ry="1.499"></ellipse>
  <path fill="#efb5a3" d="M16.287 22.885a.108.108 0 0 0 .072-.19.654.654 0 0 1-.24-.486c0-.178.086-.35.24-.486a.108.108 0 0 0-.143-.163.866.866 0 0 0-.312.65c0 .24.11.47.311.648.02.018.047.027.072.027z"></path>
  <ellipse cx="26.995" cy="22.209" fill="#fdc7b4" rx="1.285" ry="1.499"></ellipse>
  <path fill="#efb5a3" d="M27.51 22.885a.108.108 0 0 1-.073-.19.654.654 0 0 0 .24-.486.654.654 0 0 0-.24-.486.108.108 0 0 1 .143-.163.866.866 0 0 1 .313.65c0 .24-.111.47-.312.648a.109.109 0 0 1-.072.027z"></path>
  <path fill="#fdc7b4" d="M16.633 20.575v2.762a5.304 5.304 0 1 0 10.607 0v-2.762a5.3 5.3 0 0 0-5.309-5.309 5.302 5.302 0 0 0-5.298 5.309z"></path>
  <path fill="#333" d="M23.551 21.852c0 .369.203.665.454.665s.458-.296.458-.665-.206-.67-.458-.67-.454.302-.454.67zm-4.142 0c0 .369.202.665.453.665s.459-.296.459-.665-.207-.67-.459-.67-.453.302-.453.67z"></path>
  <path fill="#fff" d="M23.788 24.717c0 .027.008.052.008.08a1.86 1.86 0 1 1-3.72 0c0-.028.006-.053.007-.08h3.705z"></path>
  <path fill="#ddeaf7" d="M22.532 55.386h-1.299c-.689 0-1.25-.561-1.25-1.25v-.209c0-.69.561-1.25 1.25-1.25h1.3c.689 0 1.25.56 1.25 1.25v.208c0 .69-.561 1.251-1.25 1.251zm-1.299-2.21a.752.752 0 0 0-.75.751v.208c0 .414.336.751.75.751h1.3a.752.752 0 0 0 .75-.75v-.209a.752.752 0 0 0-.75-.75h-1.3z"></path>
  <path fill="#34324c" d="M29.182 16.355c0-3.412-.919-5.364-4.94-5.364s-7.28 2.766-7.28 6.177 12.22 2.599 12.22-.813z"></path>
  <path fill="#34324c" d="M21.653 14.305c-1.874-1.874-4.79-2.002-6.508-.284s-1.587 4.63.288 6.505 8.095-4.346 6.22-6.22zM24.995 15.287s2.717-3.578 3.908-3.002c0 0-.63.827-.486 1.399 0 0 1.113-1.18 2.519-.183 0 0-1.527 1.36-1.842 2.668l-4.1-.882z"></path>
  <path fill="#fddf8c" d="m12.182 53.343.831-22.713a4.448 4.448 0 0 0-4.456 4.456l-.802 18.257h4.427z"></path>
  <path fill="#f2cf77" d="M12.029 53.049h.984l.98-15.177h-.98z"></path>
  <path fill="#fdc7b4" d="m47.223 29.416 2.226 4.955 1.61-1.004c.478-.299.64-.917.371-1.412l-1.428-2.621 2.119-2.088a.64.64 0 0 0-.87-.935l-2.351 2.07-.073-.793a.759.759 0 0 0-1.514.031l-.09 1.797z"></path>
  <path fill="#a06167" d="m35.254 50.45-.222 4.667-.742 12.718H8.46l-.741-12.718-.223-4.667z"></path>
  <path fill="#894e57" d="m35.254 50.45-.222 4.667H7.719l-.223-4.667z"></path>
  <path fill="#a06167" d="M37.08 46.943v5.362c0 .562-.476 1.014-1.06 1.014H6.725c-.578 0-1.054-.452-1.054-1.014v-5.362c0-.561.476-1.013 1.054-1.013H36.02c.584 0 1.06.452 1.06 1.013z"></path>
</svg>
