<svg xmlns="http://www.w3.org/2000/svg" viewBox="0 0 64 64" id="professor">
  <path fill="#acabb1" d="M35.98,39.81l-6.77-2.12L30,43l-1,.17V61H43V49.35A9.989,9.989,0,0,0,35.98,39.81Z"></path>
  <path fill="#d1d3d4" d="M56.41,32.59A1.955,1.955,0,0,1,57,34a2.006,2.006,0,0,1-2,2H47a2.015,2.015,0,0,1-2-2,2.006,2.006,0,0,1,2-2h8A1.955,1.955,0,0,1,56.41,32.59Z"></path>
  <polygon fill="#e6e7e8" points="54 43 56 47 46 47 48 43 48 36 54 36 54 43"></polygon>
  <circle cx="48" cy="23" r="2" fill="#ffd422"></circle>
  <path fill="#ffd422" d="M59.55,54.11,56,47H46l-3,6.01-.55,1.1A1.991,1.991,0,0,0,43,56.57a1.963,1.963,0,0,0,1.24.43H57.76A1.994,1.994,0,0,0,59.55,54.11Z"></path>
  <path fill="#e6e7e8" d="M38,9a2.991,2.991,0,0,1,.98,5.82A1.1,1.1,0,0,1,39,15a3,3,0,0,1-3,3,2,2,0,0,0-3-1.73V13a9.89,9.89,0,0,0-1.62-5.45V7.54A3,3,0,0,1,37,9c0,.06-.02.13-.02.19A2.887,2.887,0,0,1,38,9Z"></path>
  <path fill="#ffb655" d="M34,16a2,2,0,1,1-1,3.73V16.27A2,2,0,0,1,34,16Z"></path>
  <path fill="#ffc477" d="M33,13V23a10,10,0,0,1-20,0V13a9.981,9.981,0,0,1,1.62-5.46,10.131,10.131,0,0,1,1.31-1.61A10,10,0,0,1,31.38,7.54v.01A9.89,9.89,0,0,1,33,13Z"></path>
  <circle cx="28" cy="18" r="3" fill="#ffb655"></circle>
  <polygon fill="#e6e7e8" points="29.21 37.69 30 43 29 43.17 24 44 23 44 27 37 29.21 37.69"></polygon>
  <polygon fill="#d1d3d4" points="29 43.17 29 61 25 61 26 58 24 48 26 46 24 44 29 43.17"></polygon>
  <path fill="#ffc477" d="M27,32.16V37l-4,7-4-7V32.16a9.944,9.944,0,0,0,8,0Z"></path>
  <path fill="#e6e7e8" d="M27,24v2H19V24a2.006,2.006,0,0,1,2-2h4A2.006,2.006,0,0,1,27,24Z"></path>
  <polygon fill="#898890" points="26 46 24 48 22 48 20 46 22 44 23 44 24 44 26 46"></polygon>
  <polygon fill="#787680" points="24 48 26 58 25 61 21 61 20 58 22 48 24 48"></polygon>
  <polygon fill="#e6e7e8" points="19 37 23 44 22 44 17 43.17 16 43 16.79 37.69 19 37"></polygon>
  <polygon fill="#d1d3d4" points="22 44 20 46 22 48 20 58 21 61 17 61 17 43.17 22 44"></polygon>
  <circle cx="18" cy="18" r="3" fill="#ffb655"></circle>
  <path fill="#acabb1" d="M10,61H3V49.35a9.989,9.989,0,0,1,7.02-9.54l6.77-2.12L16,43l1,.17V61Z"></path>
  <path fill="#e6e7e8" d="M14.62,7.54A9.981,9.981,0,0,0,13,13v3.27A2,2,0,0,0,10,18a3,3,0,0,1-3-3,1.1,1.1,0,0,1,.02-.18A2.991,2.991,0,0,1,8,9a2.887,2.887,0,0,1,1.02.19C9.02,9.13,9,9.06,9,9a3,3,0,0,1,5.62-1.46Z"></path>
  <path fill="#ffb655" d="M13 18v1.73a2 2 0 110-3.46zM27 32.16v2a9.944 9.944 0 01-8 0v-2a9.944 9.944 0 008 0z"></path>
  <rect width="6" height="2" x="48" y="36" fill="#e0e0e2"></rect>
  <rect width="2" height="2" x="17" y="17"></rect>
  <rect width="2" height="2" x="27" y="17"></rect>
  <rect width="10" height="2" x="18" y="11"></rect>
  <rect width="6" height="2" x="20" y="7"></rect>
  <rect width="4" height="2" x="21" y="28"></rect>
  <path d="M18,22a4.009,4.009,0,0,0,.862-.1A2.986,2.986,0,0,0,18,24v2a1,1,0,0,0,1,1h8a1,1,0,0,0,1-1V24a2.986,2.986,0,0,0-.862-2.1,4,4,0,1,0-2.333-6.282,2.941,2.941,0,0,0-3.61,0A3.994,3.994,0,1,0,18,22Zm8,3H20V24a1,1,0,0,1,1-1h4a1,1,0,0,1,1,1Zm2-9a2,2,0,1,1-2,2A2,2,0,0,1,28,16Zm-5,1a1,1,0,0,1,1,1,3.973,3.973,0,0,0,1.436,3.044A3,3,0,0,0,25,21H21a3,3,0,0,0-.436.044A3.973,3.973,0,0,0,22,18,1,1,0,0,1,23,17Zm-5-1a2,2,0,1,1-2,2A2,2,0,0,1,18,16Z"></path>
  <path d="M60.447,53.658,55,42.764V37a3,3,0,0,0,0-6H47a3,3,0,0,0,0,6v5.764l-3.022,6.043a10.931,10.931,0,0,0-7.7-9.952L28,36.265V32.786A11,11,0,0,0,34,23V21a2.993,2.993,0,0,0,2.846-2.1,4.007,4.007,0,0,0,3.128-3.439A3.99,3.99,0,0,0,37.874,8a3.992,3.992,0,0,0-6.446-2.057,10.975,10.975,0,0,0-16.856,0A3.992,3.992,0,0,0,8.126,8a3.99,3.99,0,0,0-2.1,7.461A4.006,4.006,0,0,0,9.154,18.9,2.993,2.993,0,0,0,12,21v2a11,11,0,0,0,6,9.786v3.479L9.723,38.854A10.943,10.943,0,0,0,2,49.35V61a1,1,0,0,0,1,1H43a1,1,0,0,0,1-1V57.97c.08.006.155.03.236.03H57.764a3,3,0,0,0,2.683-4.342ZM46,34a1,1,0,0,1,1-1h8a1,1,0,0,1,0,2H47A1,1,0,0,1,46,34Zm7,3v6a1,1,0,0,0,.1.447L54.382,46H47.618L48.9,43.447A1,1,0,0,0,49,43V37ZM26.98,57.8l-1.895-9.475,1.622-1.622a1,1,0,0,0,0-1.414l-.626-.626L28,44.347V60H26.388l.561-1.684A.989.989,0,0,0,26.98,57.8Zm-7.929.512L19.612,60H18V44.347l1.919.32-.626.626a1,1,0,0,0,0,1.414l1.622,1.622L19.02,57.8A.989.989,0,0,0,19.051,58.316ZM22.414,47l-1-1,1-1h1.172l1,1-1,1Zm5.9-8.542.553,3.717-4.058.676,2.661-4.657ZM34,19V17a1,1,0,0,1,0,2ZM34,7a1.993,1.993,0,0,1,2,1.946c-.007.049-.021.2-.021.244a1,1,0,0,0,1.353.936,1.988,1.988,0,1,1,1.316,3.751A1.016,1.016,0,0,0,38,15a2,2,0,0,1-1.232,1.846A3,3,0,0,0,34,15V13a10.923,10.923,0,0,0-1.428-5.4A2,2,0,0,1,34,7ZM8.005,14.99a1,1,0,0,0-.654-1.113A2,2,0,0,1,6,12a1.98,1.98,0,0,1,2.668-1.873A1,1,0,0,0,10.02,9.19.722.722,0,0,0,10,9a2,2,0,0,1,3.428-1.4A10.923,10.923,0,0,0,12,13v2a3,3,0,0,0-2.768,1.846A2,2,0,0,1,8.005,14.99ZM11,18a1,1,0,0,1,1-1v2A1,1,0,0,1,11,18Zm3,5V13a9,9,0,0,1,18,0V23a9,9,0,0,1-18,0Zm9,11a10.966,10.966,0,0,0,3-.426v3.161l-3,5.249-3-5.249V33.574A10.966,10.966,0,0,0,23,34Zm-4.469,4.194,2.661,4.657-4.058-.676.553-3.717ZM4,49.35a8.951,8.951,0,0,1,6.319-8.586l5.247-1.642-.555,3.731a1,1,0,0,0,.824,1.133l.165.028V60H11V48H9V60H4ZM21.721,60l-.688-2.064L22.82,49h.36l1.787,8.936L24.279,60ZM37,60V48H35V60H30V44.014l.165-.028a1,1,0,0,0,.824-1.133l-.555-3.731,5.25,1.643A8.948,8.948,0,0,1,42,49.35v3.414l-.447.894a2.981,2.981,0,0,0,.131,2.919,2.935,2.935,0,0,0,.316.391V60Zm21.614-4.475a.983.983,0,0,1-.85.475H44.236a1,1,0,0,1-.894-1.447L46.618,48h8.764l3.276,6.553A.979.979,0,0,1,58.614,55.525Z"></path>
  <rect width="2" height="2" x="53" y="52"></rect>
  <rect width="2" height="2" x="48" y="50"></rect>
  <path d="M48,26a3,3,0,1,0-3-3A3,3,0,0,0,48,26Zm0-4a1,1,0,1,1-1,1A1,1,0,0,1,48,22Z"></path>
  <rect width="2" height="2" x="51" y="27"></rect>
  <rect width="2" height="2" x="54" y="21"></rect>
</svg>
